<?xml version="1.0" encoding="UTF-8"?>
<svg viewBox="0 0 128 128" xmlns="http://www.w3.org/2000/svg">
 <g fill="#e44e2b">
  <path d="m33.722 73.855l-17.811 26.597c-8.1948 9.9178-2.5495 24.028 15.674 22.56 0.94684-0.076263 61.506-0.23748 61.506-0.23748 24.565 0.87724 23.405-16.373 16.623-24.46l-16.386-23.985-59.607-0.4749z" fill-rule="evenodd"/>
  <g stroke="#000" stroke-linecap="round" stroke-width="6">
   <path d="m43.036 6.4153c6.5334 6.4149 5.5473 11.264 5.6183 19.029l0.2243 24.521-31.823 47.67c-7.7011 12.839-2.4913 25.401 10.14 24.66l73.043 0.0738c13.653-0.057426 18.638-12.709 8.0575-26.04l-30.186-46.245-0.5681-24.561c-0.071014-7.7648-1.1457-12.595 5.2693-19.129l-39.775 0.0203z" stroke-linejoin="round"/>
   <g fill-rule="evenodd">
    <path d="m77.494 25.175h-10.905"/>
    <path d="m77.494 44.409h-10.905"/>
    <path d="m83.676 64.33h-10.905"/>
    <path d="m94.324 79.786h-10.905"/>
    <path d="m104.97 95.243h-10.905"/>
   </g>
  </g>
 </g>
</svg>
